# xmcd
#
# Track frame offsets:
#	150
#	4865
#	23134
#	28136
#	39643
#	55050
#	72820
#	83158
#	94890
#	114124
#	118104
#	129557
#	145151
#	154759
#	171678
#	185812
#	200112
#	204242
#	241864
#	258292
#	274262
#	289263
#	300816
#
# Disc length: 4075 seconds
#
# Revision: 1
# Processed by: cddbd v1.5.2PL0 Copyright (c) Steve Scherf et al.
# Submitted via: EZCDAudioConverter 1.3.4.1
#
DISCID=490fe917
DTITLE=The Monkees - Head 2/3
DYEAR=2010
DGENRE=
TTITLE0=Head Promo ''Coming Soon''
TTITLE1=Porpoise Song [Mono Single Mix]
TTITLE2=Ditty Diego - War Chant [Mono Mix]
TTITLE3=Circle Sky [Mono Mix]
TTITLE4=Can You Dig It [Mono Mix]
TTITLE5=As We Go Along [Mono Single Mix]
TTITLE6=Daddy's Song [Mono Mix]
TTITLE7=Long Title: Do I Have To Do This All Over Again [Mono Mix]
TTITLE8=Porpoise Song [Rough Mono Mix]
TTITLE9=Ditty Diego [Alternate Version]
TTITLE10=Circle Sky [Alternate Mono Mix]
TTITLE11=Can You Dig It [Peter's Vocal]
TTITLE12=Daddy's Song [Mike's Vocal]
TTITLE13=Long Title: Do I Have To Do This All Over Again [Rough Mix Acetate]
TTITLE14=Can You Dig It [Mono Movie Mix]
TTITLE15=Daddy's Song [Mono Movie Mix]
TTITLE16=Head Promo ''Now Playing''
TTITLE17=Introduction To Live Show
TTITLE18=You Just May Be The One [Live]
TTITLE19=Sunny Girlfriend [Live]
TTITLE20=You Told Me [Live]
TTITLE21=Circle Sky [Live]
TTITLE22=California, Here It Comes
EXTD=
EXTT0=
EXTT1=
EXTT2=
EXTT3=
EXTT4=
EXTT5=
EXTT6=
EXTT7=
EXTT8=
EXTT9=
EXTT10=
EXTT11=
EXTT12=
EXTT13=
EXTT14=
EXTT15=
EXTT16=
EXTT17=
EXTT18=
EXTT19=
EXTT20=
EXTT21=
EXTT22=
PLAYORDER=
